<svg width="57" height="66" viewBox="0 0 57 66" fill="none" xmlns="http://www.w3.org/2000/svg">
<mask id="mask0_18112_126919" style="mask-type:alpha" maskUnits="userSpaceOnUse" x="1" y="34" width="30" height="32">
<path d="M14.7368 65.8893C23.815 58.1517 29.7917 47.9428 30.6717 42.0067L16.2304 34.5293C15.2495 41.354 6.97302 51.9958 1.21875 57.9197C8.29141 57.9197 10.4887 57.2428 13.1255 56.8733C14.7871 59.4734 14.4448 62.3603 14.7368 65.8893Z" fill="#D9D9D9"/>
</mask>
<g mask="url(#mask0_18112_126919)">
<path d="M10.2705 62.489L26.8236 35.5146L32.683 40.5401L33.4154 44.9742L22.8683 62.489L12.3945 68.2531L10.2705 62.489Z" fill="#E52E40"/>
<path d="M11.9553 60.7895C17.302 55.7643 25.8715 43.1271 26.3842 37.0669L20.7445 34.0371L5.2168 58.7941L11.9553 60.7895Z" fill="#F6F8FA"/>
<path d="M-0.716797 57.5382C3.91218 55.8237 12.1008 40.7626 15.6165 33.4463L21.1831 35.2199C22.5308 40.3634 12.2229 53.375 6.90057 59.2379H-0.716797V57.5382Z" fill="#0E6A8E"/>
</g>
<mask id="mask1_18112_126919" style="mask-type:alpha" maskUnits="userSpaceOnUse" x="25" y="34" width="30" height="32">
<path d="M41.4614 65.8893C32.3832 58.1517 26.4065 47.9428 25.5266 42.0067L39.9679 34.5293C40.9487 41.354 49.2252 51.9958 54.9795 57.9197C47.9068 57.9197 45.7095 57.2428 43.0728 56.8733C41.4112 59.4734 41.7535 62.3603 41.4614 65.8893Z" fill="#D9D9D9"/>
</mask>
<g mask="url(#mask1_18112_126919)">
<path d="M45.9277 62.489L29.3746 35.5146L23.5153 40.5401L22.7828 44.9742L33.3299 62.489L43.8037 68.2531L45.9277 62.489Z" fill="#E52E40"/>
<path d="M44.2439 60.7895C38.8972 55.7643 30.3277 43.1271 29.815 37.0669L35.4547 34.0371L50.9824 58.7941L44.2439 60.7895Z" fill="#F6F8FA"/>
<path d="M56.915 57.5382C52.2861 55.8237 44.0974 40.7626 40.5817 33.4463L35.0152 35.2199C33.6675 40.3634 43.9753 53.375 49.2977 59.2379H56.915V57.5382Z" fill="#0E6A8E"/>
</g>
<g filter="url(#filter0_i_18112_126919)">
<path d="M33.7271 1.15559C36.4728 0.427176 39.3773 1.49661 41.0178 3.84004L43.3478 7.16835C44.0249 8.13568 44.9372 8.91005 45.9965 9.41672L49.6411 11.16C52.2073 12.3874 53.7527 15.0953 53.5204 17.9573L53.1905 22.022C53.0946 23.2033 53.3014 24.3898 53.7909 25.4667L55.4752 29.1721C56.6611 31.7811 56.1243 34.8604 54.1279 36.9017L51.2924 39.8009C50.4683 40.6435 49.8729 41.6868 49.5636 42.8301L48.4994 46.7638C47.7501 49.5335 45.3824 51.5434 42.556 51.8089L38.5418 52.1861C37.3751 52.2957 36.256 52.7077 35.2926 53.3824L31.9779 55.7038C29.6441 57.3383 26.5532 57.3383 24.2193 55.7038L20.9046 53.3824C19.9413 52.7077 18.8222 52.2957 17.6555 52.1861L13.6413 51.8089C10.8149 51.5434 8.44711 49.5335 7.69784 46.7638L6.63366 42.8301C6.32437 41.6868 5.72894 40.6435 4.90484 39.8009L2.06936 36.9017C0.0729374 34.8604 -0.463793 31.781 0.722096 29.1721L2.40639 25.4667C2.89591 24.3898 3.1027 23.2033 3.0068 22.022L2.67685 17.9573C2.44453 15.0953 3.98998 12.3874 6.55614 11.16L10.2008 9.41672C11.2601 8.91006 12.1723 8.13568 12.8495 7.16835L15.1795 3.84004C16.82 1.49662 19.7245 0.427175 22.4702 1.15559L26.3698 2.19014C27.5032 2.49082 28.6941 2.49082 29.8274 2.19014L33.7271 1.15559Z" fill="#586069"/>
</g>
<g filter="url(#filter1_ii_18112_126919)">
<path d="M34.0305 1.97566C36.3806 1.35193 38.8665 2.26768 40.2706 4.27431L42.9252 8.06801C43.5048 8.89632 44.2856 9.5594 45.1923 9.99325L49.3447 11.9803C51.5411 13.0313 52.8639 15.3501 52.6651 17.8007L52.2891 22.4338C52.2071 23.4453 52.384 24.4612 52.803 25.3834L54.722 29.6069C55.737 31.8409 55.2776 34.4777 53.5689 36.2256L50.3383 39.5302C49.633 40.2517 49.1233 41.1451 48.8586 42.1241L47.6462 46.6079C47.0048 48.9795 44.9783 50.7006 42.5591 50.9279L37.9856 51.3578C36.987 51.4516 36.0292 51.8044 35.2046 52.3822L31.4281 55.0282C29.4305 56.4278 26.785 56.4278 24.7875 55.0282L21.0109 52.3822C20.1864 51.8044 19.2286 51.4516 18.23 51.3578L13.6564 50.9279C11.2373 50.7006 9.21073 48.9795 8.56942 46.6079L7.35697 42.1241C7.09225 41.1451 6.58261 40.2517 5.87726 39.5302L2.64672 36.2256C0.937965 34.4777 0.478577 31.8409 1.49359 29.6069L3.41255 25.3834C3.83153 24.4612 4.00853 23.4453 3.92645 22.4338L3.55052 17.8007C3.35168 15.3501 4.67444 13.0313 6.87084 11.9803L11.0233 9.99325C11.9299 9.55941 12.7108 8.89632 13.2903 8.06801L15.9449 4.27431C17.349 2.26768 19.835 1.35193 22.1851 1.97566L26.6281 3.15487C27.5982 3.41234 28.6174 3.41234 29.5875 3.15487L34.0305 1.97566Z" fill="url(#paint0_linear_18112_126919)"/>
</g>
<g filter="url(#filter2_i_18112_126919)">
<path d="M13.936 40.5253L13.0215 41.5298C12.7105 41.8714 12.6493 42.3756 12.8694 42.7832L13.5165 43.9816L12.5236 43.0565C12.1859 42.7418 11.6875 42.6799 11.2846 42.9026L10.0999 43.5573L11.0145 42.5528C11.3255 42.2112 11.3867 41.707 11.1666 41.2994L10.5194 40.1009L11.5124 41.0261C11.8501 41.3408 12.3485 41.4027 12.7514 41.18L13.936 40.5253Z" fill="#586069"/>
</g>
<g filter="url(#filter3_i_18112_126919)">
<path d="M43.1411 39.6846L44.3258 40.3393C44.7287 40.562 45.2271 40.5001 45.5648 40.1854L46.5577 39.2603L45.9106 40.4587C45.6905 40.8663 45.7517 41.3705 46.0627 41.7121L46.9772 42.7166L45.7925 42.0619C45.3896 41.8392 44.8913 41.9012 44.5536 42.2158L43.5606 43.141L44.2078 41.9425C44.4279 41.5349 44.3667 41.0307 44.0557 40.6891L43.1411 39.6846Z" fill="#586069"/>
</g>
<g filter="url(#filter4_i_18112_126919)">
<path d="M21.0714 46.6955C20.9527 46.9416 20.7864 47.1241 20.5726 47.2429C20.3607 47.3627 20.1158 47.4154 19.8379 47.401C19.5599 47.3866 19.2645 47.3021 18.9514 47.1476C18.744 47.0451 18.565 46.9296 18.4146 46.801C18.2642 46.6724 18.1441 46.5364 18.0546 46.3929L18.2184 46.1549C18.2642 46.2342 18.3189 46.3097 18.3825 46.3812C18.446 46.4528 18.5184 46.518 18.5997 46.5771C18.681 46.6361 18.7697 46.6893 18.8659 46.7368C19.0413 46.8234 19.2139 46.8649 19.3837 46.8614C19.5545 46.856 19.7121 46.8027 19.8566 46.7016C20.002 46.5986 20.1231 46.4469 20.2197 46.2466C20.332 46.0139 20.3834 45.7888 20.3738 45.5715C20.3661 45.3551 20.3009 45.1588 20.1782 44.9824C20.0582 44.8051 19.8861 44.661 19.6617 44.5502L19.441 44.4413L17.8809 47.6749C17.8606 47.7169 17.8545 47.7587 17.8624 47.8004C17.8712 47.8402 17.8978 47.877 17.9422 47.9107L18.1718 48.0666C18.2171 48.0984 18.2442 48.1318 18.253 48.1669C18.2627 48.2 18.2569 48.2385 18.2358 48.2824C18.2164 48.3225 18.1866 48.3479 18.1464 48.3588C18.1061 48.3696 18.0558 48.3601 17.9955 48.3303L16.5189 47.6012C16.4604 47.5724 16.423 47.5386 16.4067 47.4998C16.3904 47.461 16.3919 47.4216 16.4112 47.3815C16.4462 47.309 16.5107 47.2795 16.6047 47.2928L16.7796 47.3367C16.8341 47.3447 16.8792 47.3409 16.9147 47.3254C16.9521 47.3108 16.9809 47.2825 17.0011 47.2405L18.4674 44.2015C18.4876 44.1595 18.492 44.1191 18.4803 44.0803C18.4706 44.0424 18.4458 44.0042 18.406 43.9657L18.2642 43.8531C18.196 43.7864 18.1794 43.7168 18.2144 43.6443C18.2346 43.6023 18.2644 43.5768 18.3037 43.5679C18.344 43.5571 18.3933 43.5661 18.4518 43.595L19.8237 44.2724C20.2367 44.4763 20.5581 44.7129 20.7877 44.9822C21.0183 45.2496 21.1566 45.5317 21.2026 45.8284C21.2514 46.1241 21.2077 46.4132 21.0714 46.6955Z" fill="#586069"/>
<path d="M24.2846 48.5642C24.2564 48.6753 24.2029 48.7534 24.1242 48.7987C24.0481 48.8424 23.9501 48.8487 23.8302 48.8174L21.928 48.3221L21.9892 48.0815L23.239 48.407C23.3427 48.434 23.4065 48.4002 23.4306 48.3057C23.4996 48.0343 23.5029 47.817 23.4404 47.6539C23.3785 47.4887 23.2652 47.3847 23.1006 47.3418C22.9746 47.309 22.8529 47.3189 22.7354 47.3716C22.6185 47.4223 22.5131 47.5132 22.419 47.6444C22.3275 47.774 22.2559 47.9405 22.2041 48.1441C22.1026 48.5429 22.1189 48.8661 22.2531 49.1137C22.3878 49.3592 22.6076 49.5217 22.9124 49.601C23.0913 49.6476 23.2579 49.6527 23.4124 49.6162C23.5668 49.5797 23.6984 49.5054 23.8071 49.3934C23.8541 49.3618 23.8907 49.3418 23.9167 49.3332C23.9427 49.3246 23.9669 49.3232 23.9892 49.3291C24.0218 49.3375 24.0412 49.359 24.0476 49.3936C24.0565 49.4266 24.0545 49.4644 24.0414 49.5071C23.9894 49.6776 23.8876 49.8221 23.7361 49.9405C23.5852 50.0568 23.4019 50.1341 23.1864 50.1722C22.9713 50.2082 22.7378 50.1935 22.4858 50.1278C22.1912 50.0511 21.9455 49.9225 21.7487 49.7419C21.5525 49.5593 21.4174 49.341 21.3433 49.0872C21.2697 48.8313 21.2706 48.5553 21.3459 48.2593C21.4255 47.9468 21.5568 47.6862 21.7399 47.4774C21.9251 47.2691 22.1498 47.1271 22.4139 47.0512C22.6807 46.9738 22.9735 46.9766 23.2926 47.0597C23.5649 47.1306 23.7848 47.2416 23.9522 47.3926C24.1202 47.5416 24.2314 47.7174 24.286 47.9201C24.3432 48.1213 24.3427 48.336 24.2846 48.5642Z" fill="#586069"/>
<path d="M27.9736 48.9552C27.965 49.0695 27.9258 49.1559 27.8562 49.2144C27.7888 49.2709 27.6933 49.2944 27.5699 49.2848L25.6115 49.1332L25.6302 48.8856L26.917 48.9852C27.0237 48.9934 27.0807 48.9489 27.0881 48.8515C27.1092 48.5721 27.0749 48.3576 26.9852 48.208C26.8957 48.0563 26.7662 47.9739 26.5967 47.9608C26.467 47.9508 26.3489 47.9821 26.2423 48.0547C26.136 48.1253 26.0478 48.2334 25.9779 48.3791C25.9102 48.5229 25.8684 48.6996 25.8525 48.9092C25.8215 49.3198 25.8934 49.6351 26.0683 49.8552C26.2433 50.0731 26.4877 50.1943 26.8016 50.2186C26.9857 50.2328 27.1507 50.2083 27.2965 50.1451C27.4422 50.0819 27.559 49.9855 27.6466 49.856C27.6875 49.8166 27.72 49.7904 27.7441 49.7774C27.7683 49.7643 27.7919 49.7587 27.8149 49.7605C27.8483 49.7631 27.8712 49.7808 27.8834 49.8137C27.8979 49.8446 27.9025 49.8822 27.897 49.9265C27.8752 50.1037 27.7999 50.2639 27.6712 50.4072C27.5427 50.5485 27.3756 50.6569 27.1699 50.7325C26.9644 50.806 26.732 50.8327 26.4725 50.8126C26.1691 50.7892 25.905 50.7059 25.6801 50.5629C25.4554 50.4177 25.2846 50.2267 25.1678 49.9899C25.0512 49.7509 25.0044 49.479 25.0275 49.1742C25.0518 48.8525 25.1361 48.5727 25.2804 48.3347C25.4268 48.097 25.6235 47.9174 25.8705 47.796C26.1197 47.6726 26.4086 47.6237 26.7371 47.6491C27.0175 47.6708 27.2531 47.7412 27.444 47.8603C27.6351 47.9773 27.775 48.1308 27.8638 48.3208C27.9548 48.5088 27.9914 48.7203 27.9736 48.9552Z" fill="#586069"/>
<path d="M29.9121 49.0645C29.8861 48.7557 29.9071 48.4939 29.9754 48.2792C30.0455 48.0622 30.1463 47.8959 30.2776 47.7801C30.4088 47.6623 30.5549 47.5964 30.7159 47.5825C30.9166 47.5652 31.0762 47.61 31.1948 47.7169C31.3131 47.8218 31.3814 47.982 31.3996 48.1978C31.4155 48.386 31.3888 48.5311 31.3194 48.633C31.2499 48.7327 31.1535 48.7879 31.0301 48.7986C30.9047 48.8094 30.8056 48.7839 30.733 48.7219C30.6625 48.6599 30.6221 48.5685 30.612 48.448L30.6021 48.3306C30.5965 48.265 30.5767 48.2177 30.5427 48.1887C30.5106 48.1574 30.4621 48.1445 30.3973 48.1501C30.322 48.1566 30.2525 48.1935 30.1887 48.2608C30.1267 48.3258 30.0801 48.4225 30.0489 48.5509C30.0176 48.6793 30.0101 48.8408 30.0265 49.0354L29.9121 49.0645ZM29.8753 47.8788L29.9888 48.5881L30.1267 50.222C30.1317 50.2813 30.1469 50.3247 30.1724 50.3523C30.1977 50.3778 30.2432 50.3931 30.3089 50.398L30.5793 50.4194C30.6302 50.4236 30.6681 50.4363 30.6931 50.4576C30.7201 50.4787 30.7353 50.5093 30.7387 50.5495C30.7423 50.5918 30.7295 50.627 30.7002 50.6551C30.6729 50.6809 30.63 50.6963 30.5715 50.7014L29.1068 50.8278C29.0462 50.833 29.0013 50.8252 28.9722 50.8043C28.9428 50.7812 28.9265 50.7496 28.9231 50.7094C28.9204 50.6777 28.9275 50.6494 28.9444 50.6245C28.9612 50.5996 28.989 50.5791 29.0276 50.563L29.147 50.5175C29.1836 50.5016 29.21 50.478 29.2263 50.4468C29.2425 50.4134 29.2478 50.364 29.2422 50.2984L29.0902 48.4963C29.0855 48.4413 29.0739 48.4029 29.0552 48.381C29.0365 48.3592 29.0081 48.3468 28.9699 48.3437L28.8055 48.3419C28.765 48.3368 28.7356 48.3255 28.7173 48.3079C28.699 48.2904 28.6886 48.2668 28.6861 48.2371C28.683 48.2012 28.6911 48.1717 28.7102 48.1488C28.7312 48.1235 28.768 48.098 28.8206 48.0721L29.3675 47.814C29.4686 47.7648 29.5427 47.7317 29.5897 47.7149C29.6389 47.6979 29.677 47.6882 29.7042 47.6858C29.7502 47.6819 29.786 47.6947 29.8117 47.7245C29.8395 47.7541 29.8607 47.8055 29.8753 47.8788Z" fill="#586069"/>
<path d="M32.7186 45.7607L33.5551 49.6827C33.5688 49.747 33.5872 49.7929 33.6102 49.8205C33.6349 49.8455 33.667 49.8602 33.7066 49.8646L33.8301 49.8702C33.8722 49.8762 33.9049 49.8886 33.9282 49.9074C33.9532 49.9237 33.9692 49.9484 33.9763 49.9816C33.9847 50.0211 33.9772 50.0564 33.9538 50.0875C33.932 50.1162 33.8913 50.137 33.8318 50.15L32.6195 50.4146C32.5601 50.4276 32.5145 50.4255 32.483 50.4085C32.451 50.3895 32.4308 50.3602 32.4224 50.3208C32.4158 50.2897 32.4193 50.2607 32.4329 50.2338C32.4465 50.207 32.4714 50.183 32.5077 50.1621L32.6204 50.1017C32.6547 50.0811 32.678 50.0544 32.6902 50.0213C32.7021 49.9861 32.7011 49.9364 32.6874 49.872L31.9638 46.4792C31.9523 46.4253 31.9359 46.3887 31.9146 46.3694C31.8929 46.3481 31.8639 46.3382 31.8277 46.3395L31.662 46.3627C31.6233 46.3624 31.5927 46.355 31.5703 46.3404C31.5499 46.3253 31.5364 46.3022 31.5297 46.271C31.5227 46.2378 31.5272 46.2086 31.5433 46.1834C31.5589 46.1561 31.5922 46.126 31.6432 46.0932L32.1672 45.7573C32.2406 45.7087 32.2995 45.673 32.3441 45.6503C32.3906 45.6271 32.4314 45.6117 32.4662 45.6041C32.536 45.5888 32.5923 45.5961 32.6351 45.6258C32.6779 45.6556 32.7058 45.7005 32.7186 45.7607Z" fill="#586069"/>
<path d="M34.9732 46.8185L35.6852 49.0621C35.705 49.1247 35.7278 49.1686 35.7534 49.1938C35.7804 49.2162 35.8137 49.2277 35.8536 49.2281L35.9771 49.2214C36.0195 49.2233 36.0533 49.2324 36.0783 49.2488C36.1047 49.2625 36.123 49.2855 36.1333 49.3179C36.1455 49.3563 36.1414 49.3921 36.1212 49.4255C36.1022 49.4561 36.0638 49.4809 36.0059 49.4997L34.825 49.8832C34.7671 49.902 34.7216 49.9045 34.6886 49.8907C34.6549 49.8749 34.632 49.8478 34.6198 49.8094C34.6102 49.7791 34.6108 49.7499 34.6217 49.7218C34.6327 49.6937 34.6552 49.6675 34.6893 49.643L34.7956 49.5717C34.8277 49.5479 34.8483 49.5189 34.8573 49.4848C34.8656 49.4486 34.8599 49.3992 34.84 49.3366L34.2916 47.6084C34.2749 47.5558 34.255 47.521 34.232 47.504C34.2083 47.4849 34.1775 47.4782 34.1396 47.4838L33.9799 47.5223C33.9394 47.5266 33.9083 47.5222 33.8865 47.5092C33.8648 47.4962 33.8491 47.4745 33.8395 47.4442C33.8292 47.4119 33.8308 47.3823 33.8444 47.3556C33.8573 47.3269 33.8876 47.2937 33.9351 47.2559L34.4241 46.8697C34.4924 46.8141 34.5476 46.7727 34.5897 46.7457C34.6338 46.718 34.6729 46.6986 34.7068 46.6876C34.7748 46.6655 34.8315 46.6672 34.877 46.6925C34.9225 46.7179 34.9546 46.7599 34.9732 46.8185ZM34.2719 46.3172C34.1121 46.3691 33.97 46.3695 33.8458 46.3184C33.723 46.2647 33.6401 46.1701 33.5971 46.0347C33.5541 45.8992 33.5678 45.7755 33.638 45.6635C33.7096 45.5489 33.8253 45.4656 33.9852 45.4137C34.147 45.3611 34.29 45.3604 34.4142 45.4114C34.5378 45.4605 34.6211 45.5527 34.6641 45.6882C34.707 45.8236 34.693 45.9496 34.6221 46.0663C34.5505 46.181 34.4337 46.2646 34.2719 46.3172Z" fill="#586069"/>
<path d="M36.8539 46.1289C36.7226 46.1906 36.6353 46.2725 36.592 46.3748C36.5497 46.4742 36.552 46.575 36.5989 46.677C36.6272 46.7386 36.6666 46.7892 36.7171 46.8286C36.7695 46.8672 36.8444 46.8893 36.9419 46.895C37.0394 46.9007 37.1712 46.8856 37.3375 46.8496C37.6608 46.7726 37.9236 46.7428 38.1259 46.7601C38.3301 46.7765 38.4914 46.8306 38.6099 46.9224C38.7275 47.0122 38.8208 47.1322 38.8898 47.2824C39.0126 47.55 39.0165 47.808 38.9015 48.0564C38.7874 48.3019 38.5515 48.5087 38.1937 48.6768C38.0681 48.7358 37.9591 48.773 37.8666 48.7883C37.777 48.8047 37.7016 48.8144 37.6405 48.8173C37.5794 48.8203 37.5288 48.8312 37.4889 48.85C37.4489 48.8687 37.4214 48.8945 37.4064 48.9273C37.3914 48.9601 37.3773 48.9925 37.3642 49.0244C37.352 49.0582 37.3268 49.0841 37.2887 49.102C37.2545 49.1181 37.223 49.12 37.1942 49.1078C37.1683 49.0966 37.1362 49.0695 37.098 49.0266L36.6457 48.5404C36.591 48.4818 36.5587 48.4291 36.5488 48.3823C36.538 48.3335 36.5495 48.2907 36.5835 48.2537C36.6193 48.2158 36.6573 48.1979 36.6977 48.2C36.739 48.1993 36.7845 48.2154 36.8343 48.2482C36.988 48.3562 37.1332 48.4331 37.2699 48.4789C37.4076 48.5218 37.5391 48.5385 37.6642 48.5288C37.7913 48.5183 37.9119 48.4862 38.0261 48.4325C38.1897 48.3556 38.2961 48.2647 38.3451 48.1598C38.396 48.0539 38.3958 47.9452 38.3445 47.8335C38.3136 47.7661 38.2686 47.7135 38.2096 47.6757C38.1506 47.6379 38.0639 47.6178 37.9494 47.6154C37.8349 47.613 37.6799 47.6332 37.4843 47.6759C37.2122 47.7382 36.9834 47.7615 36.7979 47.7456C36.6144 47.7289 36.4624 47.675 36.342 47.5842C36.2227 47.4904 36.1263 47.3637 36.0529 47.2039C35.976 47.0364 35.9517 46.8699 35.9798 46.7045C36.0072 46.5372 36.081 46.3832 36.2015 46.2423C36.321 46.0995 36.4817 45.9808 36.6834 45.886C36.8128 45.8252 36.9218 45.788 37.0105 45.7744C37.101 45.76 37.1768 45.7536 37.2378 45.7554C37.2978 45.7553 37.3498 45.7449 37.3936 45.7243C37.4392 45.7029 37.4701 45.6743 37.4861 45.6387C37.5013 45.6012 37.5159 45.565 37.5301 45.5303C37.5442 45.4956 37.5693 45.4697 37.6055 45.4527C37.6341 45.4393 37.6627 45.4387 37.6915 45.451C37.7221 45.4623 37.7537 45.4908 37.7862 45.5364L38.178 46.0194C38.2259 46.0834 38.2558 46.1384 38.2676 46.1844C38.2786 46.2284 38.2662 46.2693 38.2303 46.3072C38.1945 46.3451 38.1556 46.3611 38.1135 46.3551C38.0714 46.3491 38.0209 46.3272 37.9619 46.2894C37.7521 46.1399 37.5526 46.0581 37.3633 46.044C37.176 46.029 37.0062 46.0573 36.8539 46.1289Z" fill="#586069"/>
<path d="M38.6464 45.3233L38.5025 45.3677C38.4493 45.3821 38.4082 45.3861 38.3792 45.3797C38.3508 45.3704 38.3281 45.3524 38.3111 45.3256C38.2884 45.2899 38.2828 45.2556 38.2944 45.2229C38.3067 45.1871 38.3331 45.1561 38.3737 45.1297L38.5352 45.0246C38.5775 44.9971 38.6077 44.9661 38.6258 44.9316C38.6456 44.8961 38.6568 44.8471 38.6596 44.7847L38.6842 44.1933C38.6906 44.121 38.7038 44.0632 38.7237 44.02C38.7454 43.9756 38.7739 43.9419 38.8092 43.919C38.8462 43.8948 38.8833 43.8884 38.9204 43.8996C38.9563 43.9091 38.9885 43.9361 39.0168 43.9807L40.4723 46.2708C40.5517 46.3958 40.6362 46.4759 40.7259 46.5109C40.8155 46.546 40.9045 46.5348 40.9928 46.4774C41.0581 46.435 41.0999 46.3889 41.1181 46.3391C41.1382 46.2882 41.148 46.2389 41.1476 46.1912C41.1473 46.1435 41.1488 46.1008 41.1524 46.0632C41.1565 46.0227 41.1745 45.992 41.2063 45.9714C41.2327 45.9542 41.2596 45.9493 41.2868 45.9568C41.3141 45.9644 41.3413 45.9895 41.3685 46.0324C41.4314 46.1353 41.4581 46.2518 41.4484 46.3818C41.4404 46.5106 41.3958 46.6406 41.3145 46.7717C41.2338 46.8999 41.1202 47.0116 40.9737 47.1069C40.7477 47.2539 40.534 47.3121 40.3325 47.2816C40.1299 47.2494 39.9543 47.1163 39.8056 46.8823L38.8694 45.4092C38.8399 45.3628 38.808 45.3343 38.7739 45.3237C38.7415 45.3119 38.699 45.3118 38.6464 45.3233ZM39.2191 44.9584L39.0488 44.6906L39.9279 44.1188C39.9702 44.0913 40.0086 44.079 40.0428 44.0819C40.076 44.0831 40.1028 44.0997 40.1232 44.1318C40.1539 44.1801 40.1565 44.2352 40.131 44.2971C40.1055 44.3591 40.0407 44.424 39.9366 44.4917L39.2191 44.9584Z" fill="#586069"/>
</g>
<g filter="url(#filter5_i_18112_126919)">
<path d="M12.5654 36.0278L8.74201 37.7442L8.06694 36.2091C7.96538 35.9734 7.91758 35.7438 7.92953 35.5141C7.94148 35.2844 8.0072 35.085 8.13265 34.9037C8.25811 34.7224 8.43733 34.5774 8.67032 34.4746L8.74201 34.4444C8.98097 34.3356 9.20799 34.2993 9.42305 34.3296C9.64409 34.3598 9.83527 34.4504 10.0085 34.5894C10.1818 34.7345 10.3192 34.9218 10.4207 35.1515L10.8329 36.0882L12.3026 35.4295L12.5654 36.0278ZM10.3012 36.33L9.91293 35.4537C9.82332 35.2421 9.69189 35.1031 9.53059 35.0246C9.36331 34.946 9.19006 34.9521 8.99889 35.0367L8.94513 35.0608C8.75396 35.1454 8.6285 35.2784 8.57473 35.4537C8.52097 35.6289 8.53889 35.8223 8.6285 36.0278L9.01084 36.9041L10.2953 36.33H10.3012Z" fill="#586069"/>
</g>
<g filter="url(#filter6_i_18112_126919)">
<path d="M11.1147 32.4312L7.01645 33.2592L6.66995 31.5186C6.62216 31.2648 6.61619 31.0291 6.66995 30.8115C6.71775 30.6 6.81333 30.4187 6.95671 30.2797C7.10009 30.1407 7.28528 30.044 7.5123 29.9956L7.57801 29.9835C7.8349 29.9291 8.05594 29.9533 8.23516 30.044C8.41439 30.1346 8.55179 30.2676 8.64738 30.4308L8.74296 30.4126C8.71907 30.2615 8.74296 30.1286 8.82062 30.0198C8.89231 29.911 9.01777 29.8385 9.19102 29.8022L10.5471 29.5303L10.6726 30.1769L9.40011 30.4308C9.29258 30.4549 9.21491 30.4972 9.16712 30.5637C9.11933 30.6302 9.10141 30.7269 9.1253 30.8478L9.37621 32.1109L10.9952 31.7845L11.1206 32.4251L11.1147 32.4312ZM8.79673 32.2317L8.59361 31.1983C8.54582 30.9686 8.45621 30.8055 8.31283 30.7027C8.17542 30.6 8.00217 30.5698 7.80503 30.606L7.75724 30.6181C7.56009 30.6604 7.41074 30.7511 7.32113 30.9022C7.23152 31.0472 7.20762 31.2406 7.25541 31.4703L7.45853 32.5037L8.79673 32.2317Z" fill="#586069"/>
</g>
<g filter="url(#filter7_i_18112_126919)">
<path d="M10.5763 26.8412C10.5584 27.361 10.4031 27.7659 10.1044 28.0681C9.80568 28.3642 9.38749 28.5032 8.83787 28.4851L7.85812 28.4549C7.31448 28.4367 6.90227 28.2736 6.62149 27.9533C6.34071 27.639 6.20928 27.222 6.2272 26.7022C6.24512 26.1825 6.40045 25.7715 6.69915 25.4754C6.99786 25.1732 7.42202 25.0342 7.96566 25.0523L8.94541 25.0826C9.48905 25.1007 9.90126 25.2699 10.182 25.5842C10.4628 25.8984 10.5943 26.3215 10.5763 26.8412ZM9.99685 26.8231C10.0088 26.4907 9.91918 26.2308 9.73399 26.0435C9.54879 25.8561 9.28593 25.7594 8.95138 25.7474L7.92384 25.7171C7.58929 25.7051 7.32046 25.7897 7.12331 25.9649C6.92617 26.1402 6.81863 26.394 6.80669 26.7264C6.79474 27.0528 6.88435 27.3126 7.06955 27.506C7.25474 27.6994 7.5176 27.7961 7.85215 27.8082L8.87969 27.8384C9.21424 27.8505 9.48308 27.7659 9.68022 27.5846C9.87737 27.4033 9.9849 27.1555 9.99087 26.8292L9.99685 26.8231Z" fill="#586069"/>
</g>
<g filter="url(#filter8_i_18112_126919)">
<path d="M11.0962 23.0214C10.9887 23.4323 10.7915 23.7285 10.5048 23.9098C10.218 24.0911 9.86555 24.1274 9.45334 24.0186L9.10684 23.9279L9.27411 23.2994L9.62061 23.39C9.83568 23.4444 10.0209 23.4323 10.1822 23.3477C10.3435 23.2631 10.451 23.106 10.5108 22.8824C10.5645 22.6648 10.5466 22.4835 10.445 22.3445C10.3435 22.2055 10.1881 22.1088 9.96711 22.0484L7.70293 21.444L7.51773 22.1571L6.9502 22.0061L7.41617 20.2051L7.98371 20.3562L7.86423 20.8094L10.1284 21.4138C10.5466 21.5226 10.8393 21.722 11.0066 22C11.1739 22.278 11.2037 22.6165 11.0962 23.0214Z" fill="#586069"/>
</g>
<g filter="url(#filter9_i_18112_126919)">
<path d="M11.8256 20.398L8.0918 18.5003L9.27467 16.1191L9.80039 16.3851L8.90427 18.186L9.97961 18.73L10.7981 17.0801L11.3238 17.346L10.5053 18.9959L11.5986 19.5519L12.5066 17.7267L13.0324 17.9926L11.8375 20.398H11.8256Z" fill="#586069"/>
</g>
<g filter="url(#filter10_i_18112_126919)">
<path d="M14.562 16.0298C14.2394 16.4287 13.8749 16.6583 13.4627 16.7067C13.0505 16.755 12.6323 16.61 12.2082 16.2655L11.4435 15.643C11.0193 15.2985 10.7863 14.9117 10.7505 14.4947C10.7147 14.0777 10.858 13.6668 11.1747 13.2619C11.4913 12.869 11.8438 12.6515 12.2321 12.6152C12.6204 12.5789 13.0027 12.7119 13.3791 13.0201L13.409 13.0443L13.0087 13.5459L12.9669 13.5096C12.7458 13.3283 12.5188 13.2437 12.2858 13.2498C12.0529 13.2558 11.8318 13.3827 11.6347 13.6305C11.4375 13.8843 11.3539 14.1382 11.3897 14.4041C11.4256 14.67 11.5809 14.9057 11.8438 15.1293L12.6264 15.7699C12.8892 15.9875 13.1521 16.0842 13.4209 16.0661C13.6897 16.0479 13.9168 15.915 14.1199 15.6612C14.317 15.4134 14.3947 15.1716 14.3469 14.9359C14.3051 14.7002 14.1737 14.4947 13.9526 14.3134L13.8749 14.247L14.2752 13.7453L14.3409 13.7997C14.7173 14.108 14.9264 14.4524 14.9682 14.8453C15.01 15.2381 14.8786 15.6309 14.562 16.0238V16.0298Z" fill="#586069"/>
</g>
<g filter="url(#filter11_i_18112_126919)">
<path d="M16.9085 13.503L14.6503 10.6686L13.6526 11.4845L13.2822 11.0251L15.7854 8.98242L16.1558 9.44173L15.1581 10.2576L17.4163 13.092L16.9145 13.503H16.9085Z" fill="#586069"/>
</g>
<g filter="url(#filter12_i_18112_126919)">
<path d="M22.1239 10.5234C21.646 10.7047 21.2099 10.7168 20.8275 10.5476C20.4452 10.3844 20.1525 10.0399 19.9613 9.52622L19.6148 8.59551C19.4236 8.08181 19.4177 7.62854 19.5969 7.2478C19.7761 6.86705 20.1106 6.58301 20.5886 6.4017C21.0665 6.22039 21.5026 6.2083 21.8909 6.37752C22.2792 6.5407 22.566 6.88518 22.7572 7.39889L23.1037 8.3296C23.2948 8.8433 23.3008 9.29657 23.1156 9.67731C22.9304 10.0581 22.6018 10.3421 22.1179 10.5234H22.1239ZM21.9208 9.97345C22.2315 9.85862 22.4346 9.67127 22.5361 9.42952C22.6377 9.18778 22.6257 8.90373 22.5122 8.58343L22.1478 7.61041C22.0283 7.29615 21.8551 7.07858 21.6161 6.95771C21.3772 6.83684 21.1083 6.83684 20.7977 6.95771C20.493 7.07253 20.2958 7.25384 20.1883 7.50163C20.0868 7.74941 20.0927 8.03346 20.2122 8.34773L20.5707 9.32074C20.6901 9.63501 20.8694 9.85257 21.1083 9.97345C21.3473 10.0883 21.6161 10.0943 21.9208 9.97345Z" fill="#586069"/>
</g>
<g filter="url(#filter13_i_18112_126919)">
<path d="M24.6687 9.64102L24.0713 5.45283L26.6282 5.07812L26.7118 5.66435L24.7942 5.94235L24.9674 7.15107L26.7298 6.89724L26.8134 7.48346L25.051 7.73729L25.3079 9.54432L24.6687 9.63497V9.64102Z" fill="#586069"/>
</g>
<g filter="url(#filter14_i_18112_126919)">
<path d="M30.8108 9.44781L31.3544 5.85189L30.0879 5.65849L30.1775 5.07227L33.3557 5.56179L33.2661 6.14802L31.9996 5.94858L31.456 9.5445L30.8167 9.44781H30.8108Z" fill="#586069"/>
</g>
<g filter="url(#filter15_i_18112_126919)">
<path d="M33.5293 9.96775L35.0587 6.02734L35.6561 6.26304L34.9989 7.9492L36.6358 8.59586L37.293 6.9097L37.8904 7.1454L36.361 11.0858L35.7636 10.8501L36.4208 9.15187L34.7839 8.50521L34.1267 10.2034L33.5293 9.96775Z" fill="#586069"/>
</g>
<g filter="url(#filter16_i_18112_126919)">
<path d="M37.3401 11.6531L39.67 8.13574L41.8565 9.62246L41.5279 10.112L39.8731 8.99393L39.204 10.0032L40.7154 11.0306L40.3869 11.5201L38.8754 10.4927L38.1944 11.5201L39.8731 12.6563L39.5445 13.1459L37.3281 11.6471L37.3401 11.6531Z" fill="#586069"/>
</g>
<g filter="url(#filter17_i_18112_126919)">
<path d="M41.6486 15.0083L45.0359 12.5244L45.7468 13.5156L43.2436 16.489L43.2974 16.5676L46.8699 15.0869L47.5808 16.078L44.1935 18.5619L43.8231 18.0482L46.84 15.8363L46.7863 15.7577L43.2377 17.2263L42.5984 16.3379L45.0836 13.3826L45.0299 13.304L42.013 15.516L41.6426 15.0023L41.6486 15.0083Z" fill="#586069"/>
</g>
<g filter="url(#filter18_i_18112_126919)">
<path d="M45.1135 21.0942C44.9343 20.6047 44.9283 20.1696 45.0896 19.7828C45.2569 19.396 45.5914 19.0999 46.1052 18.9065L47.0252 18.562C47.539 18.3686 47.9811 18.3626 48.3575 18.5499C48.7338 18.7373 49.0146 19.0696 49.1938 19.5592C49.373 20.0487 49.385 20.4838 49.2177 20.8767C49.0564 21.2695 48.7159 21.5596 48.2081 21.753L47.2881 22.0975C46.7743 22.2909 46.3322 22.2969 45.9559 22.1096C45.5795 21.9222 45.2987 21.5838 45.1195 21.1003L45.1135 21.0942ZM45.6572 20.8888C45.7707 21.203 45.9559 21.4085 46.1948 21.5112C46.4398 21.614 46.7146 21.6019 47.0312 21.4871L47.993 21.1245C48.3037 21.0036 48.5187 20.8283 48.6382 20.5866C48.7577 20.3509 48.7577 20.0729 48.6382 19.7586C48.5247 19.4504 48.3455 19.2449 48.1006 19.1422C47.8556 19.0394 47.5748 19.0455 47.2642 19.1603L46.3024 19.5229C45.9917 19.6438 45.7766 19.8251 45.6572 20.0668C45.5377 20.3086 45.5377 20.5805 45.6572 20.8888Z" fill="#586069"/>
</g>
<g filter="url(#filter19_i_18112_126919)">
<path d="M46.0079 23.6444L50.1599 23.1367L50.3093 24.3817L46.7188 25.9772L46.7308 26.0739L50.4526 25.6146L50.5303 26.2552L46.3783 26.7629L46.229 25.5179L49.8194 23.9224L49.8074 23.8257L46.0796 24.285L46.002 23.6444H46.0079Z" fill="#586069"/>
</g>
<g filter="url(#filter20_i_18112_126919)">
<path d="M46.2717 28.9016L49.8501 29.2582L49.9756 27.9648L50.561 28.0253L50.2444 31.2586L49.6649 31.1982L49.7904 29.9048L46.2119 29.5483L46.2776 28.9016H46.2717Z" fill="#586069"/>
</g>
<g filter="url(#filter21_i_18112_126919)">
<path d="M45.8953 31.6641L49.8621 32.9936L49.659 33.6161L47.9564 33.048L47.4067 34.7342L49.1094 35.3023L48.9062 35.9248L44.9395 34.5952L45.1426 33.9727L46.8571 34.5468L47.4067 32.8607L45.6922 32.2866L45.8953 31.6701V31.6641Z" fill="#586069"/>
</g>
<g filter="url(#filter22_i_18112_126919)">
<path d="M19.2798 35.1173V31.4286H17.1416V29.5359H19.2798V27.1798H17.1416V25.2872H19.2798V21.5985H21.2652V25.2872H23.5561V21.5985H25.5415V25.2872H27.6797V27.1798H25.5415V29.5359H27.6797V31.4286H25.5415V35.1173H23.5561V31.4286H21.2652V35.1173H19.2798ZM21.2652 29.5359H23.5561V27.1798H21.2652V29.5359Z" fill="#586069"/>
<path d="M29.3175 35.1173V33.5529C29.3175 32.6002 29.4702 31.8213 29.7756 31.2161C30.0938 30.5981 30.5456 30.096 31.1311 29.7098C31.7165 29.3106 32.4292 28.9823 33.2692 28.7248L34.491 28.3386C34.9874 28.1712 35.4074 27.9716 35.751 27.7399C36.0947 27.5081 36.3619 27.2249 36.5528 26.8901C36.7437 26.5425 36.8392 26.1369 36.8392 25.6734V25.5962C36.8392 24.9009 36.6037 24.3538 36.1328 23.9546C35.6619 23.5426 35.0319 23.3366 34.2429 23.3366C33.4538 23.3366 32.8111 23.5555 32.3147 23.9933C31.8183 24.4181 31.5702 25.049 31.5702 25.8859V26.2142H29.3556V25.9245C29.3556 24.946 29.572 24.1156 30.0047 23.4332C30.4374 22.7508 31.0229 22.2294 31.7611 21.8689C32.4992 21.5084 33.3265 21.3281 34.2429 21.3281C35.1592 21.3281 35.9801 21.5084 36.7056 21.8689C37.4437 22.2165 38.0165 22.7058 38.4237 23.3366C38.8437 23.9675 39.0537 24.7078 39.0537 25.5576V25.7507C39.0537 26.6133 38.8819 27.3408 38.5383 27.933C38.1946 28.5253 37.7174 29.0145 37.1065 29.4008C36.5083 29.7741 35.8274 30.0831 35.0638 30.3278L33.8801 30.6947C33.3074 30.8749 32.8492 31.0681 32.5056 31.2741C32.1747 31.4801 31.9392 31.7183 31.7992 31.9886C31.6592 32.2461 31.5892 32.5744 31.5892 32.9736V33.1088H38.9392V35.1173H29.3175Z" fill="#586069"/>
</g>
<g filter="url(#filter23_i_18112_126919)">
<path d="M36.8416 16.6035L35.7422 15.0511C34.7016 13.5816 32.8592 12.911 31.1175 13.3678L29.2774 13.8503C28.7 14.0018 28.0934 14.0018 27.516 13.8503L25.6759 13.3678C23.9342 12.911 22.0918 13.5816 21.0512 15.0511L19.9518 16.6035C19.6068 17.0906 19.1421 17.4806 18.6024 17.7357L16.8827 18.5488C15.2549 19.3185 14.2746 21.0165 14.4219 22.811L14.5776 24.7069C14.6265 25.3018 14.5211 25.8993 14.2717 26.4416L13.477 28.1699C12.7248 29.8058 13.0652 31.7367 14.3316 33.0167L15.6695 34.3689C16.0894 34.7933 16.3927 35.3187 16.5503 35.8944L17.0524 37.7292C17.5277 39.4659 19.0297 40.7262 20.8225 40.8927L22.7166 41.0686C23.311 41.1238 23.8811 41.3313 24.3719 41.6711L25.9359 42.7538C27.4164 43.7787 29.377 43.7787 30.8575 42.7538L32.4215 41.6711C32.9123 41.3313 33.4824 41.1238 34.0767 41.0686L35.9709 40.8927C37.7637 40.7262 39.2657 39.4659 39.741 37.7292L40.2431 35.8944C40.4007 35.3187 40.704 34.7933 41.1238 34.3689L42.4618 33.0167C43.7282 31.7367 44.0686 29.8058 43.3164 28.1699L42.5216 26.4416C42.2723 25.8993 42.1669 25.3018 42.2158 24.7069L42.3715 22.811C42.5188 21.0165 41.5385 19.3185 39.9107 18.5488L38.191 17.7357C37.6513 17.4806 37.1866 17.0906 36.8416 16.6035Z" stroke="#586069" stroke-width="0.8512"/>
</g>
<g opacity="0.6" filter="url(#filter24_f_18112_126919)">
<path d="M35.1457 15.4718L36.2462 17.0258C36.6635 17.615 37.2257 18.0868 37.8785 18.3954L39.5999 19.2093C40.9521 19.8487 41.7665 21.2592 41.6441 22.7499L41.4882 24.6477C41.4291 25.3673 41.5566 26.0901 41.8582 26.7461L42.6538 28.4761C43.2787 29.8351 42.9958 31.439 41.9438 32.5023L40.6046 33.8559C40.0967 34.3692 39.7298 35.0048 39.5392 35.7012L39.0366 37.5378C38.6417 38.9805 37.3941 40.0275 35.9047 40.1658L34.0087 40.3418C33.2898 40.4086 32.6001 40.6596 32.0064 41.0706L30.4409 42.1544C29.2111 43.0058 27.5823 43.0058 26.3525 42.1544L24.7869 41.0706C24.1933 40.6596 23.5036 40.4086 22.7847 40.3418L20.8887 40.1658C19.3993 40.0275 18.1516 38.9805 17.7568 37.5378L17.2542 35.7012C17.0636 35.0048 16.6967 34.3692 16.1888 33.8559L14.8496 32.5023C13.7976 31.439 13.5147 29.8351 14.1396 28.4761L14.9351 26.7461C15.2368 26.0901 15.3643 25.3673 15.3052 24.6477L15.1493 22.7499C15.0269 21.2592 15.8413 19.8487 17.1935 19.2093L18.9149 18.3954C19.5677 18.0868 20.1299 17.615 20.5472 17.0258L21.6477 15.4718C22.5121 14.2512 24.0426 13.6941 25.4894 14.0735L27.3313 14.5565C28.0298 14.7397 28.7636 14.7397 29.4621 14.5565L31.3039 14.0735C32.7508 13.6941 34.2813 14.2512 35.1457 15.4718Z" stroke="white" stroke-width="0.608693"/>
</g>
<defs>
<filter id="filter0_i_18112_126919" x="0.0986328" y="0.929688" width="56.3043" height="56.3043" filterUnits="userSpaceOnUse" color-interpolation-filters="sRGB">
<feFlood flood-opacity="0" result="BackgroundImageFix"/>
<feBlend mode="normal" in="SourceGraphic" in2="BackgroundImageFix" result="shape"/>
<feColorMatrix in="SourceAlpha" type="matrix" values="0 0 0 0 0 0 0 0 0 0 0 0 0 0 0 0 0 0 127 0" result="hardAlpha"/>
<feOffset dx="0.304346" dy="0.304346"/>
<feGaussianBlur stdDeviation="0.304346"/>
<feComposite in2="hardAlpha" operator="arithmetic" k2="-1" k3="1"/>
<feColorMatrix type="matrix" values="0 0 0 0 0 0 0 0 0 0 0 0 0 0 0 0 0 0 0.2 0"/>
<feBlend mode="normal" in2="shape" result="effect1_innerShadow_18112_126919"/>
</filter>
<filter id="filter1_ii_18112_126919" x="-0.257425" y="-0.0438519" width="56.7307" height="57.9481" filterUnits="userSpaceOnUse" color-interpolation-filters="sRGB">
<feFlood flood-opacity="0" result="BackgroundImageFix"/>
<feBlend mode="normal" in="SourceGraphic" in2="BackgroundImageFix" result="shape"/>
<feColorMatrix in="SourceAlpha" type="matrix" values="0 0 0 0 0 0 0 0 0 0 0 0 0 0 0 0 0 0 127 0" result="hardAlpha"/>
<feOffset dx="1.21739" dy="-1.82608"/>
<feGaussianBlur stdDeviation="1.21739"/>
<feComposite in2="hardAlpha" operator="arithmetic" k2="-1" k3="1"/>
<feColorMatrix type="matrix" values="0 0 0 0 1 0 0 0 0 1 0 0 0 0 1 0 0 0 0.55 0"/>
<feBlend mode="normal" in2="shape" result="effect1_innerShadow_18112_126919"/>
<feColorMatrix in="SourceAlpha" type="matrix" values="0 0 0 0 0 0 0 0 0 0 0 0 0 0 0 0 0 0 127 0" result="hardAlpha"/>
<feOffset dx="-1.21739" dy="1.82608"/>
<feGaussianBlur stdDeviation="1.21739"/>
<feComposite in2="hardAlpha" operator="arithmetic" k2="-1" k3="1"/>
<feColorMatrix type="matrix" values="0 0 0 0 1 0 0 0 0 1 0 0 0 0 1 0 0 0 0.55 0"/>
<feBlend mode="normal" in2="effect1_innerShadow_18112_126919" result="effect2_innerShadow_18112_126919"/>
</filter>
<filter id="filter2_i_18112_126919" x="10.0996" y="40.1006" width="4.14126" height="4.18521" filterUnits="userSpaceOnUse" color-interpolation-filters="sRGB">
<feFlood flood-opacity="0" result="BackgroundImageFix"/>
<feBlend mode="normal" in="SourceGraphic" in2="BackgroundImageFix" result="shape"/>
<feColorMatrix in="SourceAlpha" type="matrix" values="0 0 0 0 0 0 0 0 0 0 0 0 0 0 0 0 0 0 127 0" result="hardAlpha"/>
<feOffset dx="0.304346" dy="0.304346"/>
<feGaussianBlur stdDeviation="0.304346"/>
<feComposite in2="hardAlpha" operator="arithmetic" k2="-1" k3="1"/>
<feColorMatrix type="matrix" values="0 0 0 0 0 0 0 0 0 0 0 0 0 0 0 0 0 0 0.2 0"/>
<feBlend mode="normal" in2="shape" result="effect1_innerShadow_18112_126919"/>
</filter>
<filter id="filter3_i_18112_126919" x="43.1416" y="39.2607" width="4.14028" height="4.18423" filterUnits="userSpaceOnUse" color-interpolation-filters="sRGB">
<feFlood flood-opacity="0" result="BackgroundImageFix"/>
<feBlend mode="normal" in="SourceGraphic" in2="BackgroundImageFix" result="shape"/>
<feColorMatrix in="SourceAlpha" type="matrix" values="0 0 0 0 0 0 0 0 0 0 0 0 0 0 0 0 0 0 127 0" result="hardAlpha"/>
<feOffset dx="0.304346" dy="0.304346"/>
<feGaussianBlur stdDeviation="0.304346"/>
<feComposite in2="hardAlpha" operator="arithmetic" k2="-1" k3="1"/>
<feColorMatrix type="matrix" values="0 0 0 0 0 0 0 0 0 0 0 0 0 0 0 0 0 0 0.2 0"/>
<feBlend mode="normal" in2="shape" result="effect1_innerShadow_18112_126919"/>
</filter>
<filter id="filter4_i_18112_126919" x="16.3955" y="43.5635" width="25.359" height="7.56997" filterUnits="userSpaceOnUse" color-interpolation-filters="sRGB">
<feFlood flood-opacity="0" result="BackgroundImageFix"/>
<feBlend mode="normal" in="SourceGraphic" in2="BackgroundImageFix" result="shape"/>
<feColorMatrix in="SourceAlpha" type="matrix" values="0 0 0 0 0 0 0 0 0 0 0 0 0 0 0 0 0 0 127 0" result="hardAlpha"/>
<feOffset dx="0.304346" dy="0.304346"/>
<feGaussianBlur stdDeviation="0.304346"/>
<feComposite in2="hardAlpha" operator="arithmetic" k2="-1" k3="1"/>
<feColorMatrix type="matrix" values="0 0 0 0 0 0 0 0 0 0 0 0 0 0 0 0 0 0 0.2 0"/>
<feBlend mode="normal" in2="shape" result="effect1_innerShadow_18112_126919"/>
</filter>
<filter id="filter5_i_18112_126919" x="7.92773" y="34.3193" width="4.94204" height="3.72915" filterUnits="userSpaceOnUse" color-interpolation-filters="sRGB">
<feFlood flood-opacity="0" result="BackgroundImageFix"/>
<feBlend mode="normal" in="SourceGraphic" in2="BackgroundImageFix" result="shape"/>
<feColorMatrix in="SourceAlpha" type="matrix" values="0 0 0 0 0 0 0 0 0 0 0 0 0 0 0 0 0 0 127 0" result="hardAlpha"/>
<feOffset dx="0.304346" dy="0.304346"/>
<feGaussianBlur stdDeviation="0.304346"/>
<feComposite in2="hardAlpha" operator="arithmetic" k2="-1" k3="1"/>
<feColorMatrix type="matrix" values="0 0 0 0 0 0 0 0 0 0 0 0 0 0 0 0 0 0 0.2 0"/>
<feBlend mode="normal" in2="shape" result="effect1_innerShadow_18112_126919"/>
</filter>
<filter id="filter6_i_18112_126919" x="6.63184" y="29.5303" width="4.7936" height="4.03286" filterUnits="userSpaceOnUse" color-interpolation-filters="sRGB">
<feFlood flood-opacity="0" result="BackgroundImageFix"/>
<feBlend mode="normal" in="SourceGraphic" in2="BackgroundImageFix" result="shape"/>
<feColorMatrix in="SourceAlpha" type="matrix" values="0 0 0 0 0 0 0 0 0 0 0 0 0 0 0 0 0 0 127 0" result="hardAlpha"/>
<feOffset dx="0.304346" dy="0.304346"/>
<feGaussianBlur stdDeviation="0.304346"/>
<feComposite in2="hardAlpha" operator="arithmetic" k2="-1" k3="1"/>
<feColorMatrix type="matrix" values="0 0 0 0 0 0 0 0 0 0 0 0 0 0 0 0 0 0 0.2 0"/>
<feBlend mode="normal" in2="shape" result="effect1_innerShadow_18112_126919"/>
</filter>
<filter id="filter7_i_18112_126919" x="6.22559" y="25.0508" width="4.65689" height="3.73989" filterUnits="userSpaceOnUse" color-interpolation-filters="sRGB">
<feFlood flood-opacity="0" result="BackgroundImageFix"/>
<feBlend mode="normal" in="SourceGraphic" in2="BackgroundImageFix" result="shape"/>
<feColorMatrix in="SourceAlpha" type="matrix" values="0 0 0 0 0 0 0 0 0 0 0 0 0 0 0 0 0 0 127 0" result="hardAlpha"/>
<feOffset dx="0.304346" dy="0.304346"/>
<feGaussianBlur stdDeviation="0.304346"/>
<feComposite in2="hardAlpha" operator="arithmetic" k2="-1" k3="1"/>
<feColorMatrix type="matrix" values="0 0 0 0 0 0 0 0 0 0 0 0 0 0 0 0 0 0 0.2 0"/>
<feBlend mode="normal" in2="shape" result="effect1_innerShadow_18112_126919"/>
</filter>
<filter id="filter8_i_18112_126919" x="6.9502" y="20.2051" width="4.51333" height="4.17935" filterUnits="userSpaceOnUse" color-interpolation-filters="sRGB">
<feFlood flood-opacity="0" result="BackgroundImageFix"/>
<feBlend mode="normal" in="SourceGraphic" in2="BackgroundImageFix" result="shape"/>
<feColorMatrix in="SourceAlpha" type="matrix" values="0 0 0 0 0 0 0 0 0 0 0 0 0 0 0 0 0 0 127 0" result="hardAlpha"/>
<feOffset dx="0.304346" dy="0.304346"/>
<feGaussianBlur stdDeviation="0.304346"/>
<feComposite in2="hardAlpha" operator="arithmetic" k2="-1" k3="1"/>
<feColorMatrix type="matrix" values="0 0 0 0 0 0 0 0 0 0 0 0 0 0 0 0 0 0 0.2 0"/>
<feBlend mode="normal" in2="shape" result="effect1_innerShadow_18112_126919"/>
</filter>
<filter id="filter9_i_18112_126919" x="8.0918" y="16.1191" width="5.24478" height="4.58364" filterUnits="userSpaceOnUse" color-interpolation-filters="sRGB">
<feFlood flood-opacity="0" result="BackgroundImageFix"/>
<feBlend mode="normal" in="SourceGraphic" in2="BackgroundImageFix" result="shape"/>
<feColorMatrix in="SourceAlpha" type="matrix" values="0 0 0 0 0 0 0 0 0 0 0 0 0 0 0 0 0 0 127 0" result="hardAlpha"/>
<feOffset dx="0.304346" dy="0.304346"/>
<feGaussianBlur stdDeviation="0.304346"/>
<feComposite in2="hardAlpha" operator="arithmetic" k2="-1" k3="1"/>
<feColorMatrix type="matrix" values="0 0 0 0 0 0 0 0 0 0 0 0 0 0 0 0 0 0 0.2 0"/>
<feBlend mode="normal" in2="shape" result="effect1_innerShadow_18112_126919"/>
</filter>
<filter id="filter10_i_18112_126919" x="10.7451" y="12.6094" width="4.53482" height="4.41079" filterUnits="userSpaceOnUse" color-interpolation-filters="sRGB">
<feFlood flood-opacity="0" result="BackgroundImageFix"/>
<feBlend mode="normal" in="SourceGraphic" in2="BackgroundImageFix" result="shape"/>
<feColorMatrix in="SourceAlpha" type="matrix" values="0 0 0 0 0 0 0 0 0 0 0 0 0 0 0 0 0 0 127 0" result="hardAlpha"/>
<feOffset dx="0.304346" dy="0.304346"/>
<feGaussianBlur stdDeviation="0.304346"/>
<feComposite in2="hardAlpha" operator="arithmetic" k2="-1" k3="1"/>
<feColorMatrix type="matrix" values="0 0 0 0 0 0 0 0 0 0 0 0 0 0 0 0 0 0 0.2 0"/>
<feBlend mode="normal" in2="shape" result="effect1_innerShadow_18112_126919"/>
</filter>
<filter id="filter11_i_18112_126919" x="13.2822" y="8.98242" width="4.43814" height="4.82485" filterUnits="userSpaceOnUse" color-interpolation-filters="sRGB">
<feFlood flood-opacity="0" result="BackgroundImageFix"/>
<feBlend mode="normal" in="SourceGraphic" in2="BackgroundImageFix" result="shape"/>
<feColorMatrix in="SourceAlpha" type="matrix" values="0 0 0 0 0 0 0 0 0 0 0 0 0 0 0 0 0 0 127 0" result="hardAlpha"/>
<feOffset dx="0.304346" dy="0.304346"/>
<feGaussianBlur stdDeviation="0.304346"/>
<feComposite in2="hardAlpha" operator="arithmetic" k2="-1" k3="1"/>
<feColorMatrix type="matrix" values="0 0 0 0 0 0 0 0 0 0 0 0 0 0 0 0 0 0 0.2 0"/>
<feBlend mode="normal" in2="shape" result="effect1_innerShadow_18112_126919"/>
</filter>
<filter id="filter12_i_18112_126919" x="19.4668" y="6.25781" width="4.08853" height="4.71353" filterUnits="userSpaceOnUse" color-interpolation-filters="sRGB">
<feFlood flood-opacity="0" result="BackgroundImageFix"/>
<feBlend mode="normal" in="SourceGraphic" in2="BackgroundImageFix" result="shape"/>
<feColorMatrix in="SourceAlpha" type="matrix" values="0 0 0 0 0 0 0 0 0 0 0 0 0 0 0 0 0 0 127 0" result="hardAlpha"/>
<feOffset dx="0.304346" dy="0.304346"/>
<feGaussianBlur stdDeviation="0.304346"/>
<feComposite in2="hardAlpha" operator="arithmetic" k2="-1" k3="1"/>
<feColorMatrix type="matrix" values="0 0 0 0 0 0 0 0 0 0 0 0 0 0 0 0 0 0 0.2 0"/>
<feBlend mode="normal" in2="shape" result="effect1_innerShadow_18112_126919"/>
</filter>
<filter id="filter13_i_18112_126919" x="24.0713" y="5.07812" width="3.04653" height="4.86685" filterUnits="userSpaceOnUse" color-interpolation-filters="sRGB">
<feFlood flood-opacity="0" result="BackgroundImageFix"/>
<feBlend mode="normal" in="SourceGraphic" in2="BackgroundImageFix" result="shape"/>
<feColorMatrix in="SourceAlpha" type="matrix" values="0 0 0 0 0 0 0 0 0 0 0 0 0 0 0 0 0 0 127 0" result="hardAlpha"/>
<feOffset dx="0.304346" dy="0.304346"/>
<feGaussianBlur stdDeviation="0.304346"/>
<feComposite in2="hardAlpha" operator="arithmetic" k2="-1" k3="1"/>
<feColorMatrix type="matrix" values="0 0 0 0 0 0 0 0 0 0 0 0 0 0 0 0 0 0 0.2 0"/>
<feBlend mode="normal" in2="shape" result="effect1_innerShadow_18112_126919"/>
</filter>
<filter id="filter14_i_18112_126919" x="30.0879" y="5.07227" width="3.57192" height="4.777" filterUnits="userSpaceOnUse" color-interpolation-filters="sRGB">
<feFlood flood-opacity="0" result="BackgroundImageFix"/>
<feBlend mode="normal" in="SourceGraphic" in2="BackgroundImageFix" result="shape"/>
<feColorMatrix in="SourceAlpha" type="matrix" values="0 0 0 0 0 0 0 0 0 0 0 0 0 0 0 0 0 0 127 0" result="hardAlpha"/>
<feOffset dx="0.304346" dy="0.304346"/>
<feGaussianBlur stdDeviation="0.304346"/>
<feComposite in2="hardAlpha" operator="arithmetic" k2="-1" k3="1"/>
<feColorMatrix type="matrix" values="0 0 0 0 0 0 0 0 0 0 0 0 0 0 0 0 0 0 0.2 0"/>
<feBlend mode="normal" in2="shape" result="effect1_innerShadow_18112_126919"/>
</filter>
<filter id="filter15_i_18112_126919" x="33.5293" y="6.02734" width="4.66567" height="5.36294" filterUnits="userSpaceOnUse" color-interpolation-filters="sRGB">
<feFlood flood-opacity="0" result="BackgroundImageFix"/>
<feBlend mode="normal" in="SourceGraphic" in2="BackgroundImageFix" result="shape"/>
<feColorMatrix in="SourceAlpha" type="matrix" values="0 0 0 0 0 0 0 0 0 0 0 0 0 0 0 0 0 0 127 0" result="hardAlpha"/>
<feOffset dx="0.304346" dy="0.304346"/>
<feGaussianBlur stdDeviation="0.304346"/>
<feComposite in2="hardAlpha" operator="arithmetic" k2="-1" k3="1"/>
<feColorMatrix type="matrix" values="0 0 0 0 0 0 0 0 0 0 0 0 0 0 0 0 0 0 0.2 0"/>
<feBlend mode="normal" in2="shape" result="effect1_innerShadow_18112_126919"/>
</filter>
<filter id="filter16_i_18112_126919" x="37.3281" y="8.13574" width="4.83267" height="5.31411" filterUnits="userSpaceOnUse" color-interpolation-filters="sRGB">
<feFlood flood-opacity="0" result="BackgroundImageFix"/>
<feBlend mode="normal" in="SourceGraphic" in2="BackgroundImageFix" result="shape"/>
<feColorMatrix in="SourceAlpha" type="matrix" values="0 0 0 0 0 0 0 0 0 0 0 0 0 0 0 0 0 0 127 0" result="hardAlpha"/>
<feOffset dx="0.304346" dy="0.304346"/>
<feGaussianBlur stdDeviation="0.304346"/>
<feComposite in2="hardAlpha" operator="arithmetic" k2="-1" k3="1"/>
<feColorMatrix type="matrix" values="0 0 0 0 0 0 0 0 0 0 0 0 0 0 0 0 0 0 0.2 0"/>
<feBlend mode="normal" in2="shape" result="effect1_innerShadow_18112_126919"/>
</filter>
<filter id="filter17_i_18112_126919" x="41.6426" y="12.5244" width="6.24282" height="6.34146" filterUnits="userSpaceOnUse" color-interpolation-filters="sRGB">
<feFlood flood-opacity="0" result="BackgroundImageFix"/>
<feBlend mode="normal" in="SourceGraphic" in2="BackgroundImageFix" result="shape"/>
<feColorMatrix in="SourceAlpha" type="matrix" values="0 0 0 0 0 0 0 0 0 0 0 0 0 0 0 0 0 0 127 0" result="hardAlpha"/>
<feOffset dx="0.304346" dy="0.304346"/>
<feGaussianBlur stdDeviation="0.304346"/>
<feComposite in2="hardAlpha" operator="arithmetic" k2="-1" k3="1"/>
<feColorMatrix type="matrix" values="0 0 0 0 0 0 0 0 0 0 0 0 0 0 0 0 0 0 0.2 0"/>
<feBlend mode="normal" in2="shape" result="effect1_innerShadow_18112_126919"/>
</filter>
<filter id="filter18_i_18112_126919" x="44.9736" y="18.4131" width="4.66665" height="4.13735" filterUnits="userSpaceOnUse" color-interpolation-filters="sRGB">
<feFlood flood-opacity="0" result="BackgroundImageFix"/>
<feBlend mode="normal" in="SourceGraphic" in2="BackgroundImageFix" result="shape"/>
<feColorMatrix in="SourceAlpha" type="matrix" values="0 0 0 0 0 0 0 0 0 0 0 0 0 0 0 0 0 0 127 0" result="hardAlpha"/>
<feOffset dx="0.304346" dy="0.304346"/>
<feGaussianBlur stdDeviation="0.304346"/>
<feComposite in2="hardAlpha" operator="arithmetic" k2="-1" k3="1"/>
<feColorMatrix type="matrix" values="0 0 0 0 0 0 0 0 0 0 0 0 0 0 0 0 0 0 0.2 0"/>
<feBlend mode="normal" in2="shape" result="effect1_innerShadow_18112_126919"/>
</filter>
<filter id="filter19_i_18112_126919" x="46.002" y="23.1367" width="4.83267" height="3.93032" filterUnits="userSpaceOnUse" color-interpolation-filters="sRGB">
<feFlood flood-opacity="0" result="BackgroundImageFix"/>
<feBlend mode="normal" in="SourceGraphic" in2="BackgroundImageFix" result="shape"/>
<feColorMatrix in="SourceAlpha" type="matrix" values="0 0 0 0 0 0 0 0 0 0 0 0 0 0 0 0 0 0 127 0" result="hardAlpha"/>
<feOffset dx="0.304346" dy="0.304346"/>
<feGaussianBlur stdDeviation="0.304346"/>
<feComposite in2="hardAlpha" operator="arithmetic" k2="-1" k3="1"/>
<feColorMatrix type="matrix" values="0 0 0 0 0 0 0 0 0 0 0 0 0 0 0 0 0 0 0.2 0"/>
<feBlend mode="normal" in2="shape" result="effect1_innerShadow_18112_126919"/>
</filter>
<filter id="filter20_i_18112_126919" x="46.2119" y="27.9648" width="4.65396" height="3.59829" filterUnits="userSpaceOnUse" color-interpolation-filters="sRGB">
<feFlood flood-opacity="0" result="BackgroundImageFix"/>
<feBlend mode="normal" in="SourceGraphic" in2="BackgroundImageFix" result="shape"/>
<feColorMatrix in="SourceAlpha" type="matrix" values="0 0 0 0 0 0 0 0 0 0 0 0 0 0 0 0 0 0 127 0" result="hardAlpha"/>
<feOffset dx="0.304346" dy="0.304346"/>
<feGaussianBlur stdDeviation="0.304346"/>
<feComposite in2="hardAlpha" operator="arithmetic" k2="-1" k3="1"/>
<feColorMatrix type="matrix" values="0 0 0 0 0 0 0 0 0 0 0 0 0 0 0 0 0 0 0.2 0"/>
<feBlend mode="normal" in2="shape" result="effect1_innerShadow_18112_126919"/>
</filter>
<filter id="filter21_i_18112_126919" x="44.9395" y="31.6641" width="5.2272" height="4.56509" filterUnits="userSpaceOnUse" color-interpolation-filters="sRGB">
<feFlood flood-opacity="0" result="BackgroundImageFix"/>
<feBlend mode="normal" in="SourceGraphic" in2="BackgroundImageFix" result="shape"/>
<feColorMatrix in="SourceAlpha" type="matrix" values="0 0 0 0 0 0 0 0 0 0 0 0 0 0 0 0 0 0 127 0" result="hardAlpha"/>
<feOffset dx="0.304346" dy="0.304346"/>
<feGaussianBlur stdDeviation="0.304346"/>
<feComposite in2="hardAlpha" operator="arithmetic" k2="-1" k3="1"/>
<feColorMatrix type="matrix" values="0 0 0 0 0 0 0 0 0 0 0 0 0 0 0 0 0 0 0.2 0"/>
<feBlend mode="normal" in2="shape" result="effect1_innerShadow_18112_126919"/>
</filter>
<filter id="filter22_i_18112_126919" x="17.1416" y="21.3281" width="22.2165" height="14.0934" filterUnits="userSpaceOnUse" color-interpolation-filters="sRGB">
<feFlood flood-opacity="0" result="BackgroundImageFix"/>
<feBlend mode="normal" in="SourceGraphic" in2="BackgroundImageFix" result="shape"/>
<feColorMatrix in="SourceAlpha" type="matrix" values="0 0 0 0 0 0 0 0 0 0 0 0 0 0 0 0 0 0 127 0" result="hardAlpha"/>
<feOffset dx="0.304346" dy="0.304346"/>
<feGaussianBlur stdDeviation="0.304346"/>
<feComposite in2="hardAlpha" operator="arithmetic" k2="-1" k3="1"/>
<feColorMatrix type="matrix" values="0 0 0 0 0 0 0 0 0 0 0 0 0 0 0 0 0 0 0.2 0"/>
<feBlend mode="normal" in2="shape" result="effect1_innerShadow_18112_126919"/>
</filter>
<filter id="filter23_i_18112_126919" x="12.6562" y="12.8008" width="31.7858" height="31.4518" filterUnits="userSpaceOnUse" color-interpolation-filters="sRGB">
<feFlood flood-opacity="0" result="BackgroundImageFix"/>
<feBlend mode="normal" in="SourceGraphic" in2="BackgroundImageFix" result="shape"/>
<feColorMatrix in="SourceAlpha" type="matrix" values="0 0 0 0 0 0 0 0 0 0 0 0 0 0 0 0 0 0 127 0" result="hardAlpha"/>
<feOffset dx="0.304346" dy="0.304346"/>
<feGaussianBlur stdDeviation="0.304346"/>
<feComposite in2="hardAlpha" operator="arithmetic" k2="-1" k3="1"/>
<feColorMatrix type="matrix" values="0 0 0 0 0 0 0 0 0 0 0 0 0 0 0 0 0 0 0.2 0"/>
<feBlend mode="normal" in2="shape" result="effect1_innerShadow_18112_126919"/>
</filter>
<filter id="filter24_f_18112_126919" x="12.046" y="12.1905" width="32.702" height="32.368" filterUnits="userSpaceOnUse" color-interpolation-filters="sRGB">
<feFlood flood-opacity="0" result="BackgroundImageFix"/>
<feBlend mode="normal" in="SourceGraphic" in2="BackgroundImageFix" result="shape"/>
<feGaussianBlur stdDeviation="0.730435" result="effect1_foregroundBlur_18112_126919"/>
</filter>
<linearGradient id="paint0_linear_18112_126919" x1="10.193" y1="-6.95455" x2="-6.84075" y2="63.6825" gradientUnits="userSpaceOnUse">
<stop stop-color="#FEDE6D"/>
<stop offset="0.0001" stop-color="#B9BEC1"/>
<stop offset="0.330437" stop-color="#E9EAEC"/>
<stop offset="0.642351" stop-color="#E4E5E7"/>
<stop offset="0.846429" stop-color="white"/>
</linearGradient>
</defs>
</svg>
