<svg width="1280" height="640" viewBox="0 0 1280 640" fill="none" xmlns="http://www.w3.org/2000/svg">
<g id="logo" clip-path="url(#clip0_11_2)">
<rect id="Rectangle 4" width="1280" height="640" fill="#141414"/>
<path id="ekho" d="M562.56 416.5C546.76 416.5 533.06 413 521.46 406C509.96 399 501.01 389.15 494.61 376.45C488.21 363.75 485.01 348.85 485.01 331.75C485.01 314.05 488.16 298.75 494.46 285.85C500.76 272.95 509.61 263 521.01 256C532.51 249 546.06 245.5 561.66 245.5C577.66 245.5 591.31 249.2 602.61 256.6C613.91 263.9 622.46 274.4 628.26 288.1C634.06 301.8 636.71 318.15 636.21 337.15H613.71V329.35C613.31 308.35 608.76 292.5 600.06 281.8C591.46 271.1 578.86 265.75 562.26 265.75C544.86 265.75 531.51 271.4 522.21 282.7C513.01 294 508.41 310.1 508.41 331C508.41 351.4 513.01 367.25 522.21 378.55C531.51 389.75 544.66 395.35 561.66 395.35C573.26 395.35 583.36 392.7 591.96 387.4C600.66 382 607.51 374.25 612.51 364.15L633.06 372.1C626.66 386.2 617.21 397.15 604.71 404.95C592.31 412.65 578.26 416.5 562.56 416.5ZM500.61 337.15V318.7H624.36V337.15H500.61ZM669.348 412L669.498 196H691.698V328L763.998 250H793.398L717.498 331L803.298 412H771.198L691.698 334V412H669.348ZM935.326 412V329.35C935.326 320.35 934.476 312.1 932.776 304.6C931.076 297 928.326 290.4 924.526 284.8C920.826 279.1 915.976 274.7 909.976 271.6C904.076 268.5 896.876 266.95 888.376 266.95C880.576 266.95 873.676 268.3 867.676 271C861.776 273.7 856.776 277.6 852.676 282.7C848.676 287.7 845.626 293.8 843.526 301C841.426 308.2 840.376 316.4 840.376 325.6L824.776 322.15C824.776 305.55 827.676 291.6 833.476 280.3C839.276 269 847.276 260.45 857.476 254.65C867.676 248.85 879.376 245.95 892.576 245.95C902.276 245.95 910.726 247.45 917.926 250.45C925.226 253.45 931.376 257.5 936.376 262.6C941.476 267.7 945.576 273.55 948.676 280.15C951.776 286.65 954.026 293.6 955.426 301C956.826 308.3 957.526 315.6 957.526 322.9V412H935.326ZM818.176 412V196H838.126V317.95H840.376V412H818.176ZM1064.1 416.5C1048 416.5 1034.25 412.85 1022.85 405.55C1011.45 398.25 1002.7 388.15 996.601 375.25C990.501 362.35 987.451 347.55 987.451 330.85C987.451 313.85 990.551 298.95 996.751 286.15C1002.95 273.35 1011.75 263.4 1023.15 256.3C1034.65 249.1 1048.3 245.5 1064.1 245.5C1080.3 245.5 1094.1 249.15 1105.5 256.45C1117 263.65 1125.75 273.7 1131.75 286.6C1137.85 299.4 1140.9 314.15 1140.9 330.85C1140.9 347.85 1137.85 362.8 1131.75 375.7C1125.65 388.5 1116.85 398.5 1105.35 405.7C1093.85 412.9 1080.1 416.5 1064.1 416.5ZM1064.1 395.35C1082.1 395.35 1095.5 389.4 1104.3 377.5C1113.1 365.5 1117.5 349.95 1117.5 330.85C1117.5 311.25 1113.05 295.65 1104.15 284.05C1095.35 272.45 1082 266.65 1064.1 266.65C1052 266.65 1042 269.4 1034.1 274.9C1026.3 280.3 1020.45 287.85 1016.55 297.55C1012.75 307.15 1010.85 318.25 1010.85 330.85C1010.85 350.35 1015.35 366 1024.35 377.8C1033.35 389.5 1046.6 395.35 1064.1 395.35Z" fill="white"/>
<g id="Group 3">
<path id="Vector" d="M437.655 370.832L204.611 504.599C167.099 526.131 121 498.104 121 453.767V186.232C121 141.895 167.099 113.869 204.611 135.401L437.655 269.168C476.248 291.325 476.248 348.675 437.655 370.832Z" fill="#566473"/>
<path id="Vector_2" d="M401.691 357.943L226.908 458.268C198.774 474.417 164.2 453.397 164.2 420.144V219.493C164.2 186.24 198.774 165.221 226.908 181.37L401.691 281.695C430.636 298.313 430.636 341.325 401.691 357.943Z" fill="#181B1E"/>
</g>
</g>
<defs>
<clipPath id="clip0_11_2">
<rect width="1280" height="640" fill="white"/>
</clipPath>
</defs>
</svg>
